<mxfile host="app.diagrams.net" agent="Mozilla/5.0 (X11; Linux x86_64) AppleWebKit/537.36 (KHTML, like Gecko) Chrome/130.0.0.0 Safari/537.36" version="26.1.0">
  <diagram name="Page-1" id="OLsxRADU-k52HOdc-w9y">
    <mxGraphModel dx="1233" dy="526" grid="1" gridSize="10" guides="1" tooltips="1" connect="1" arrows="1" fold="1" page="1" pageScale="1" pageWidth="850" pageHeight="1100" math="0" shadow="0">
      <root>
        <mxCell id="0" />
        <mxCell id="1" parent="0" />
        <mxCell id="KuuQmFmd2kZD6wSZJOrN-1" value="" style="rounded=0;whiteSpace=wrap;html=1;" parent="1" vertex="1">
          <mxGeometry x="90" y="30" width="650" height="380" as="geometry" />
        </mxCell>
        <mxCell id="KuuQmFmd2kZD6wSZJOrN-2" value="AWS Account A" style="points=[[0,0],[0.25,0],[0.5,0],[0.75,0],[1,0],[1,0.25],[1,0.5],[1,0.75],[1,1],[0.75,1],[0.5,1],[0.25,1],[0,1],[0,0.75],[0,0.5],[0,0.25]];outlineConnect=0;gradientColor=none;html=1;whiteSpace=wrap;fontSize=12;fontStyle=0;container=1;pointerEvents=0;collapsible=0;recursiveResize=0;shape=mxgraph.aws4.group;grIcon=mxgraph.aws4.group_account;strokeColor=#CD2264;fillColor=none;verticalAlign=top;align=left;spacingLeft=30;fontColor=#CD2264;dashed=0;" parent="1" vertex="1">
          <mxGeometry x="480" y="50" width="240" height="330" as="geometry" />
        </mxCell>
        <mxCell id="KuuQmFmd2kZD6wSZJOrN-3" value="AWS Account B" style="points=[[0,0],[0.25,0],[0.5,0],[0.75,0],[1,0],[1,0.25],[1,0.5],[1,0.75],[1,1],[0.75,1],[0.5,1],[0.25,1],[0,1],[0,0.75],[0,0.5],[0,0.25]];outlineConnect=0;html=1;whiteSpace=wrap;fontSize=12;fontStyle=0;container=1;pointerEvents=0;collapsible=0;recursiveResize=0;shape=mxgraph.aws4.group;grIcon=mxgraph.aws4.group_account;strokeColor=#82b366;fillColor=#d5e8d4;verticalAlign=top;align=left;spacingLeft=30;dashed=0;" parent="1" vertex="1">
          <mxGeometry x="120" y="53" width="240" height="330" as="geometry" />
        </mxCell>
        <mxCell id="KuuQmFmd2kZD6wSZJOrN-4" value="&lt;font color=&quot;#3b3535&quot;&gt;S3&amp;nbsp;&lt;/font&gt;" style="outlineConnect=0;dashed=0;verticalLabelPosition=bottom;verticalAlign=top;align=center;html=1;shape=mxgraph.aws3.s3;fillColor=#d80073;fontColor=#ffffff;strokeColor=#A50040;" parent="1" vertex="1">
          <mxGeometry x="630" y="90" width="66.5" height="70" as="geometry" />
        </mxCell>
        <mxCell id="KuuQmFmd2kZD6wSZJOrN-5" value="VPC" style="points=[[0,0],[0.25,0],[0.5,0],[0.75,0],[1,0],[1,0.25],[1,0.5],[1,0.75],[1,1],[0.75,1],[0.5,1],[0.25,1],[0,1],[0,0.75],[0,0.5],[0,0.25]];outlineConnect=0;html=1;whiteSpace=wrap;fontSize=12;fontStyle=0;container=1;pointerEvents=0;collapsible=0;recursiveResize=0;shape=mxgraph.aws4.group;grIcon=mxgraph.aws4.group_vpc2;strokeColor=#A50040;fillColor=#d80073;verticalAlign=top;align=left;spacingLeft=30;fontColor=#ffffff;dashed=0;" parent="1" vertex="1">
          <mxGeometry x="500" y="110" width="70" height="50" as="geometry" />
        </mxCell>
        <mxCell id="KuuQmFmd2kZD6wSZJOrN-7" value="&lt;font color=&quot;#262626&quot;&gt;EC2&lt;/font&gt;" style="outlineConnect=0;dashed=0;verticalLabelPosition=bottom;verticalAlign=top;align=center;html=1;shape=mxgraph.aws3.ec2;fillColor=#d80073;fontColor=#ffffff;strokeColor=#A50040;" parent="1" vertex="1">
          <mxGeometry x="510" y="187" width="50" height="70" as="geometry" />
        </mxCell>
        <mxCell id="KuuQmFmd2kZD6wSZJOrN-8" value="Account A IAM Role" style="sketch=0;outlineConnect=0;fontColor=#232F3E;gradientColor=none;fillColor=#DD344C;strokeColor=none;dashed=0;verticalLabelPosition=bottom;verticalAlign=top;align=center;html=1;fontSize=12;fontStyle=0;aspect=fixed;pointerEvents=1;shape=mxgraph.aws4.role;" parent="1" vertex="1">
          <mxGeometry x="510" y="320" width="53.18" height="30" as="geometry" />
        </mxCell>
        <mxCell id="KuuQmFmd2kZD6wSZJOrN-9" value="&lt;font color=&quot;#262626&quot;&gt;Account B IAM Role&lt;/font&gt;" style="sketch=0;outlineConnect=0;fontColor=#ffffff;fillColor=#60a917;strokeColor=#2D7600;dashed=0;verticalLabelPosition=bottom;verticalAlign=top;align=center;html=1;fontSize=12;fontStyle=0;aspect=fixed;pointerEvents=1;shape=mxgraph.aws4.role;" parent="1" vertex="1">
          <mxGeometry x="250" y="170" width="53.18" height="30" as="geometry" />
        </mxCell>
        <mxCell id="GtUE0ePq_RMTDFtKbqB4-1" style="edgeStyle=orthogonalEdgeStyle;rounded=0;orthogonalLoop=1;jettySize=auto;html=1;" edge="1" parent="1" source="KuuQmFmd2kZD6wSZJOrN-10" target="KuuQmFmd2kZD6wSZJOrN-5">
          <mxGeometry relative="1" as="geometry">
            <Array as="points">
              <mxPoint x="277" y="230" />
              <mxPoint x="440" y="230" />
              <mxPoint x="440" y="135" />
            </Array>
          </mxGeometry>
        </mxCell>
        <mxCell id="GtUE0ePq_RMTDFtKbqB4-2" style="edgeStyle=orthogonalEdgeStyle;rounded=0;orthogonalLoop=1;jettySize=auto;html=1;exitX=1;exitY=0.5;exitDx=0;exitDy=0;exitPerimeter=0;" edge="1" parent="1" source="KuuQmFmd2kZD6wSZJOrN-10" target="KuuQmFmd2kZD6wSZJOrN-4">
          <mxGeometry relative="1" as="geometry" />
        </mxCell>
        <mxCell id="KuuQmFmd2kZD6wSZJOrN-10" value="EC2 Instance" style="outlineConnect=0;dashed=0;verticalLabelPosition=bottom;verticalAlign=top;align=center;html=1;shape=mxgraph.aws3.instance;fillColor=#F58534;gradientColor=none;" parent="1" vertex="1">
          <mxGeometry x="246.59" y="250" width="60" height="63" as="geometry" />
        </mxCell>
      </root>
    </mxGraphModel>
  </diagram>
</mxfile>
